<svg width="760" height="329" viewBox="0 0 760 329" fill="none" xmlns="http://www.w3.org/2000/svg">
<g filter="url(#filter0_ddd)">
<path d="M109.601 266.882C98.534 266.882 88.6117 264.593 79.8342 260.013C71.0571 255.434 64.1402 248.755 59.0836 239.978C54.027 231.201 51.4987 220.515 51.4987 207.921C51.6896 195.519 54.3609 184.738 59.5126 175.579C64.6646 166.42 71.5817 159.312 80.2638 154.256C88.9458 149.199 98.9158 146.671 110.174 146.671C121.241 146.671 130.734 148.77 138.652 152.968C146.571 157.166 152.82 162.651 157.399 169.425C161.979 176.199 164.746 183.402 165.7 191.035H143.661C142.134 183.593 138.509 177.773 132.785 173.575C127.06 169.377 119.809 167.278 111.032 167.278C99.5835 167.278 90.6629 170.904 84.2707 178.155C77.8784 185.406 74.6823 194.756 74.6823 206.204C74.6823 218.416 77.783 228.1 83.9843 235.255C90.186 242.411 99.1065 245.989 110.746 245.989C118.951 245.989 126.106 243.89 132.212 239.692C138.318 235.494 142.134 229.388 143.661 221.374H165.7C164.746 229.388 161.931 236.877 157.256 243.842C152.582 250.806 146.237 256.388 138.223 260.586C130.209 264.783 120.668 266.882 109.601 266.882Z" fill="#233D4D"/>
<path d="M272.316 51.5034H292.065V70.1073H275.178C271.172 70.1073 267.832 71.0138 265.16 72.8268C262.489 74.6393 259.246 79.4572 255.43 87.2806L245.412 109.319L291.207 221.803H266.592L233.677 133.934L198.472 221.803H173.571L233.677 84.7043C237.875 74.973 241.691 67.7222 245.125 62.952C248.56 58.1818 252.376 55.0812 256.574 53.6501C260.772 52.219 266.019 51.5034 272.316 51.5034Z" fill="#233D4D"/>
<path d="M358.039 266.882C346.971 266.882 337.049 264.593 328.272 260.013C319.494 255.434 312.577 248.755 307.521 239.978C302.464 231.201 299.936 220.515 299.936 207.921C300.127 195.519 302.798 184.738 307.95 175.579C313.102 166.42 320.019 159.312 328.701 154.256C337.383 149.199 347.353 146.671 358.611 146.671C369.678 146.671 379.171 148.77 387.09 152.968C395.008 157.166 401.258 162.651 405.837 169.425C410.417 176.199 413.183 183.402 414.138 191.035H392.098C390.572 183.593 386.947 177.773 381.222 173.575C375.498 169.377 368.247 167.278 359.469 167.278C348.021 167.278 339.101 170.904 332.709 178.155C326.316 185.406 323.12 194.756 323.12 206.204C323.12 218.416 326.221 228.1 332.422 235.255C338.623 242.411 347.544 245.989 359.184 245.989C367.389 245.989 374.544 243.89 380.65 239.692C386.756 235.494 390.572 229.388 392.098 221.374H414.138C413.183 229.388 410.369 236.877 405.694 243.842C401.019 250.806 394.675 256.388 386.661 260.586C378.646 264.783 369.106 266.882 358.039 266.882Z" fill="#233D4D"/>
<path d="M461.936 264.02H438.466V102.879H461.936V264.02Z" fill="#233D4D"/>
<path d="M501.148 264.02C495.233 264.02 491.273 262.541 489.27 259.584C487.266 256.626 486.265 252.953 486.265 248.565C486.265 244.557 487.266 241.075 489.27 238.117C491.273 235.16 495.233 233.681 501.148 233.681C506.681 233.681 510.45 235.16 512.453 238.117C514.457 241.075 515.459 244.557 515.459 248.565C515.459 252.953 514.457 256.626 512.453 259.584C510.45 262.541 506.681 264.02 501.148 264.02Z" fill="#233D4D"/>
<path d="M558.964 134.077C553.812 134.268 550.377 133.027 548.66 130.356C546.943 127.685 546.084 124.346 546.084 120.339C546.084 116.904 546.943 113.851 548.66 111.18C550.377 108.508 553.812 107.173 558.964 107.173C563.925 107.173 567.312 108.508 569.124 111.18C570.937 113.851 571.844 116.904 571.844 120.339C571.844 124.346 570.937 127.637 569.124 130.213C567.312 132.789 563.925 134.077 558.964 134.077Z" fill="#233D4D"/>
<path d="M570.699 264.02H546.943V146.957H570.699V264.02Z" fill="#233D4D"/>
<path fill-rule="evenodd" clip-rule="evenodd" d="M651.126 266.882C631.664 266.882 617.162 261.253 607.621 249.995C598.081 238.738 593.31 224.427 593.31 207.063C593.12 189.508 597.89 175.102 607.621 163.844C617.352 152.586 631.854 146.862 651.126 146.671C669.826 146.671 684.042 152.204 693.773 163.271C703.504 174.339 708.37 188.936 708.37 207.063C708.37 218.321 706.319 228.482 702.216 237.545C698.114 246.609 691.817 253.764 683.326 259.012C674.835 264.259 664.102 266.882 651.126 266.882ZM651.126 246.561C660.285 246.561 667.298 244.558 672.163 240.55C677.029 236.543 680.416 231.439 682.324 225.238C684.232 219.036 685.186 212.692 685.186 206.204C685.186 199.717 684.232 193.372 682.324 187.171C680.416 180.969 677.029 175.817 672.163 171.715C667.298 167.612 660.285 165.561 651.126 165.561C641.776 165.561 634.621 167.612 629.66 171.715C624.699 175.817 621.264 180.969 619.356 187.171C617.448 193.372 616.494 199.717 616.494 206.204C616.494 212.692 617.448 219.036 619.356 225.238C621.264 231.439 624.699 236.543 629.66 240.55C634.621 244.558 641.776 246.561 651.126 246.561Z" fill="#233D4D"/>
</g>
<defs>
<filter id="filter0_ddd" x="-46" y="-37" width="852" height="417.583" filterUnits="userSpaceOnUse" color-interpolation-filters="sRGB">
<feFlood flood-opacity="0" result="BackgroundImageFix"/>
<feColorMatrix in="SourceAlpha" type="matrix" values="0 0 0 0 0 0 0 0 0 0 0 0 0 0 0 0 0 0 127 0"/>
<feOffset dy="11"/>
<feGaussianBlur stdDeviation="7.5"/>
<feColorMatrix type="matrix" values="0 0 0 0 0 0 0 0 0 0 0 0 0 0 0 0 0 0 0.2 0"/>
<feBlend mode="normal" in2="BackgroundImageFix" result="effect1_dropShadow"/>
<feColorMatrix in="SourceAlpha" type="matrix" values="0 0 0 0 0 0 0 0 0 0 0 0 0 0 0 0 0 0 127 0"/>
<feOffset dy="9"/>
<feGaussianBlur stdDeviation="23"/>
<feColorMatrix type="matrix" values="0 0 0 0 0 0 0 0 0 0 0 0 0 0 0 0 0 0 0.12 0"/>
<feBlend mode="normal" in2="effect1_dropShadow" result="effect2_dropShadow"/>
<feColorMatrix in="SourceAlpha" type="matrix" values="0 0 0 0 0 0 0 0 0 0 0 0 0 0 0 0 0 0 127 0"/>
<feOffset dy="24"/>
<feGaussianBlur stdDeviation="19"/>
<feColorMatrix type="matrix" values="0 0 0 0 0 0 0 0 0 0 0 0 0 0 0 0 0 0 0.14 0"/>
<feBlend mode="normal" in2="effect2_dropShadow" result="effect3_dropShadow"/>
<feBlend mode="normal" in="SourceGraphic" in2="effect3_dropShadow" result="shape"/>
</filter>
</defs>
</svg>
